<?xml version="1.0" encoding="utf-8"?>
<!-- Generator: Adobe Illustrator 18.0.0, SVG Export Plug-In . SVG Version: 6.00 Build 0)  -->
<!DOCTYPE svg PUBLIC "-//W3C//DTD SVG 1.1//EN" "http://www.w3.org/Graphics/SVG/1.1/DTD/svg11.dtd">
<svg version="1.1" id="Layer_1" xmlns="http://www.w3.org/2000/svg" xmlns:xlink="http://www.w3.org/1999/xlink" x="0px" y="0px"
	 width="600px" height="172.6px" viewBox="0 0 600 172.6" enable-background="new 0 0 600 172.6" xml:space="preserve">
<g>
	<path fill="#96B3D7" d="M115,165c0-6.7,0-13.2,0-19.6c0-1.5,0.8-1.9,2.1-1.9c1.9,0,3.9,0,5.8,0c7.9,0,15.9,0,23.8,0
		c0.9,0,1.8,0,3,0c0.2-2.8,0.3-5.4,0-8c-1.1-0.6-2.1-0.4-3.1-0.4c-9.5,0-19,0-28.5,0c-3.1,0-3.1,0-3.1-3.1c0-5.2,0-10.3,0-15.5
		c0-2.9,0.1-3,2.9-3c11.5,0,22.9,0,34.4,0c0.7,0,1.5,0.2,2.3-0.3c0.6-2.4,0.1-5,0.2-7.5c-2-0.7-45.4-0.9-49.2-0.2
		c0,20.6,0,41.2,0,62.1c-4.7,1-9.3,1.4-13.9,1.4c-1.3,0-1.8-0.8-1.8-2c0.1-4-0.7-7.9-0.6-11.9c0.2-5.9-1.8-10.7-7.3-13.5
		c-0.2-0.1-0.3-0.4-0.7-0.9c4.9-3.2,8.6-7.3,9.1-13.3c0.5-5.7,0.1-11.3-3.9-15.9c5.8-6.4,7.9-14.5,10.8-22
		c4.3-11.1,8.1-22.3,12.1-33.5c0.3-0.8,0.7-1.7,0.7-2.8c-2.4-0.4-4.7-0.2-7.3-0.1c-3.7,11-7.3,22.1-11,33.1c-1.1,0-1.2-0.7-1.4-1.3
		c-1.3-4.2-2.7-8.4-4-12.6c-0.7-2.1-0.6-4.4-0.8-6.5c-1.1-9.5-6.5-15.4-15-18.7C63.1,44,55,42.7,47,40.9c-4.8-1.1-9.4-2.4-14-4.1
		c-0.3-0.1-0.5-0.2-0.7-0.4c-4-2.6-4.4-2.9-1-6.4c6.9-7.2,14.7-13.1,23.6-17.6c1.8-0.9,3.3-0.8,5-0.1c5.9,2.6,9.7,6.9,10.7,13.3
		c0.2,1,0.5,2,0.8,2.9c0,0.1,0.1,0.1,0.3,0.4c3.6,0,7.4,0,11.5,0c0.2-9.3-2.8-16.9-10.1-22.8c20.3-6,51.4-1.9,73.8,18.2
		c28.4,25.4,33.6,62.5,22.4,91.7C158,145.6,130.9,162.4,115,165z"/>
	<path fill="#96B3D7" d="M22.5,65.9c-3.4-0.5-7,0.4-10.4-0.6c0.9-5.7,5.2-15.9,8.5-20.4c0.4-0.1,0.7-0.1,1.1,0.1
		c5.7,4,12.4,5.4,19,7.1c6,1.6,12.3,2.3,18.2,4.4c4,1.4,8.2,2.4,11.4,5.4c4.3,4.1,4.9,13.6,0.6,18.5c-2.8,3.2-6.4,5.1-10.6,6.1
		c-4.6,1.1-9.2,1.8-13.9,1.5c-4.9-0.3-9.7-1.3-13.9-3.9c-6-3.7-8.4-9.4-9.3-16.1C22.9,67.4,23.1,66.7,22.5,65.9z"/>
	<path fill="#98B5D7" d="M33.8,145.1c-8.5-8.2-14.8-17.9-19.1-28.9C9,101.6,7.7,86.6,10.9,71.1c0.3,1.3,0.5,2.5,0.9,3.8
		c3,11.3,10.4,18.2,21.5,21.6c6.8,2.1,13.8,2.6,20.8,1.9c8.4-0.8,16.4-3.3,23.4-8.3c2.2-1.6,3.6-3.9,5.3-5.9c0.9,0.1,1,0.8,1.2,1.4
		c1,2.8,2,5.5,3.2,8.2c0.7,1.8,0.6,3.4-0.1,5c-0.5,1-0.8,2-1.3,3.1c-1.7,3.8-3.6,5.1-7.6,4.1c-4.4-1-8.8-1-13.2-1
		c-9,0-17.9,0-26.9,0c-1,0-2,0-3.3,0c0,13.4,0,26.5,0,39.7C34.4,144.9,34.1,145,33.8,145.1z"/>
	<path fill="#97B4D7" d="M44,136.8c0-6,0-12.2,0-18.4c0-6.2-0.8-5.4,5.5-5.4c5.9,0,11.8-0.1,17.7,0c2.7,0.1,5.5,0.2,8.1,1.4
		c3.2,1.5,4.9,4.1,5.6,7.4c0.4,2,0.4,4.2,0,6.3c-1.1,5.9-4.4,8.3-11.5,9.1c-7.7,0.9-15.4,0.6-23.1,0.4
		C45.5,137.7,44.8,137.4,44,136.8z"/>
	<path fill="#97B4D7" d="M44,146.2c1.2-1.1,2.3-1,3.4-1c5.6,0,11.3,0,16.9,0c2.4,0,4.8,0.2,7.1,0.5c4.5,0.7,7.6,3.4,8.2,7.8
		c0.6,4.6,1.2,9.3,0.9,14c-2.9,0.8-5.4-0.4-7.9-1c-9.4-2.2-18.1-6.1-26.2-11.3c-1.5-0.9-2.4-2.3-2.3-4.1
		C44.1,149.5,44,147.8,44,146.2z"/>
</g>
<path fill="#87A5CF" d="M459.8,93.7c-2.6,0.3-5.1,0.2-7.9,0c0-10.2,0-20.4,0-30.5c-1.2-0.1-1.1,0.7-1.2,1.3
	c-2.1,9.2-4.1,18.5-6.1,27.7c-0.2,1.1-0.7,1.6-1.9,1.6c-2.2,0-4.4,0-7,0c-2.3-10.4-4.7-20.6-7.1-31.5c-1,2.4-0.5,4.4-0.6,6.3
	c-0.1,2.1,0,4.2,0,6.4c0,2,0,4.1,0,6.1c0,2.1,0,4.2,0,6.4c0,2,0,4,0,6.2c-2.7,0.1-5,0.2-7.6,0c0-13.6,0-27.1,0-40.7c4,0,8,0,12.3,0
	c2.3,10,4.7,20.2,7.1,30.4c3-9.9,5.1-20.1,7.6-30.4c4.1,0,8.2,0,12.4,0C459.8,66.6,459.8,80.1,459.8,93.7z"/>
<path fill="#88A6CF" d="M231.6,81.3c2.7,0,5.1,0,7.5,0c0.7,0.4,0.8,0.9,1,1.4c0.7,2.7,2.5,4.2,5.1,4.8c2.8,0.6,5.5,0.6,8.1-0.4
	c2.1-0.8,3.5-2.6,3.3-4.3c-0.2-2-1.4-3.2-3.3-4c-3-1.3-6.3-1.5-9.3-2.5c-1.3-0.4-2.6-0.8-4-1.2c-7.1-1.9-9.3-8.4-7.4-14.6
	c1.1-3.5,3.3-5.9,6.6-7.3c5-2.2,10.2-2.3,15.3-0.5c5.6,1.9,8.8,5.8,9.1,12.1c-2.6,0-5.3,0-7.9,0c-1-0.6-0.6-2-1.3-2.9
	c-2.5-3.4-10.1-4.3-13-1.2c-2.2,2.3-1.7,5.7,2.2,7c2.3,0.8,4.8,1.2,7.2,1.8c2.7,0.6,5.3,1.4,7.9,2.4c7.6,3.1,7.6,13,3.4,17.8
	c-2.8,3.2-6.4,4.6-10.4,5.1c-4.2,0.5-8.5,0.1-12.5-1.5C234.5,91.4,231,86.1,231.6,81.3z"/>
<path fill="#88A6CF" d="M339.6,65c-2.7,0.2-5.3,0.2-7.7,0c-1.2-0.8-0.9-2.1-1.5-3c-2.7-4.1-10.7-3.8-13.2-1
	c-2.3,2.6-1.1,5.5,2.2,6.7c2.3,0.8,4.8,1.3,7.2,1.9c2.8,0.6,5.5,1.4,8.2,2.5c7.7,3.1,7.5,13.3,3.4,17.8c-2.8,3.1-6.3,4.6-10.2,5
	c-4.3,0.5-8.7,0.3-12.8-1.5c-4.1-1.8-8.3-6.2-7.7-12c2.5,0,5.1,0,7.6,0c0.6,0.4,0.7,0.9,0.8,1.4c0.7,2.7,2.6,4.2,5.2,4.7
	c2.9,0.6,5.7,0.6,8.4-0.6c1.8-0.8,3.1-2.2,3-4.3c-0.1-1.9-1.3-3.1-3.1-3.8c-3.2-1.3-6.6-1.7-9.9-2.6c-2.3-0.6-4.6-1.3-6.7-2.5
	c-2.9-1.6-4.3-4.1-4.7-7.4c-1.1-9.6,6.1-14.4,13.1-14.6c2.7-0.1,5.3-0.2,7.9,0.5C335.3,54.2,339.3,57.9,339.6,65z"/>
<path fill="#87A5CF" d="M390.9,68.8c6.8,0,13.1,0,19.6,0c0.7,2.4,0.3,4.6,0.3,7.3c-6.6,0-13.1,0-19.7,0c-0.2,3.6-0.2,6.7-0.1,10.2
	c7.6,0,14.9,0,22.5,0c0.4,2.6,0.1,5,0.1,7.5c-10.3,0-20.4,0-30.8,0c0-13.5,0-27,0-40.7c9.9,0,19.8,0,29.9,0c0.3,2.3,0.4,4.5-0.1,7
	c-7.1,0-14.1,0-21.3,0C390.6,63,391,65.7,390.9,68.8z"/>
<path fill="#87A5CF" d="M503.3,93.7c-2.9,0.4-5.6,0.1-8.2,0.2c-1,0-1.4-0.6-1.7-1.5c-0.5-1.8-1.2-3.5-1.6-5.3
	c-0.3-1.2-1-1.6-2.2-1.6c-4.3,0-8.7,0-12.9,0c-1.8,2.5-1.8,5.7-3.3,8.2c-2.9,0-5.8,0-8.9,0C469.3,80,474.1,66.6,479,53
	c3.3,0,6.4,0,9.9,0C493.7,66.4,498.5,80,503.3,93.7z M478.8,78.3c3.7,0.1,6.8,0.2,10.2-0.1c-1.7-5.3-3.3-10.3-4.9-15.2
	C482,68,480.1,72.9,478.8,78.3z"/>
<path fill="#88A6CF" d="M590.2,66.5c-2.9,0.4-5.6,0.1-8.1,0.2c-0.8-0.7-1.1-1.4-1.3-2.1c-1.3-3.3-3.9-4.8-7.3-5
	c-3.9-0.3-6.8,1.2-8.8,4.6c-2.5,4.4-2.5,9.1-1.8,14c0.5,3.1,1.6,5.8,4.3,7.7c5,3.3,11.3,1.6,13.5-3.9c0.7-1.7,1.5-2.4,3.2-2.3
	c1.8,0.1,3.7,0,5.7,0c0.2,3.8-1.5,6.7-3.6,9.2c-5.1,6.2-11.7,7.3-19,5.5c-8.3-2-12.7-9.4-13.3-17.1c-0.3-4-0.1-7.8,0.9-11.7
	c2.2-9,11-14.9,20.4-13.3c4.2,0.7,8,1.9,11,5.1C588.4,59.8,589.8,62.6,590.2,66.5z"/>
<path fill="#87A5CF" d="M268.1,52.9c3.3,0,6.2,0,9,0c1.5,0,1.7,1.2,2.2,2.2c1.8,4.2,4,8.3,6,12.5c0.3,0.7,0.5,1.5,1.5,2.1
	c3.1-5.4,5.1-11.2,7.9-16.6c3.2,0,6.3,0,9.7,0c-1.7,3.2-3.2,6.1-4.7,9c-2.6,5-5.3,9.9-8,14.9c-0.6,1.1-0.8,2.2-0.8,3.4
	c0,3.5,0,7,0,10.5c0,0.9,0.2,1.9-0.5,2.8c-2.5,0.5-5.1,0.1-7.9,0.2c-0.6-2.3-0.4-4.5-0.3-6.7c0.4-5.6-0.5-10.6-3.7-15.4
	c-3.4-5-6-10.6-8.9-15.9C269.2,55.1,268.8,54.3,268.1,52.9z"/>
<path fill="#88A6CF" d="M522.3,93.9c-3.2,0-5.9,0.2-8.9-0.2c0-11.1,0-22.1,0-33.3c-4.2-0.6-8,0-11.9-0.4c-0.6-2.3-0.2-4.5-0.3-6.9
	c11,0,21.9,0,32.8,0c0.5,2.1,0.6,4.1,0,7c-3.7,0-7.6,0-11.7,0C522.3,71.5,522.3,82.6,522.3,93.9z"/>
<path fill="#87A5CF" d="M356.1,60.1c-4.3,0-8.1,0-12,0c-0.7-2.4-0.2-4.7-0.3-6.9c2.4-0.5,29.6-0.5,33-0.1c0.5,2.2,0.3,4.4,0.1,7
	c-3.9,0-7.8,0-11.9,0c0,11.4,0,22.4,0,33.5c-3.1,0.5-5.8,0.2-8.8,0.2C356.1,82.5,356.1,71.5,356.1,60.1z"/>
<path fill="#8BA8D0" d="M382.2,121.2c-1.4,5.1-2.8,10.2-4.1,15.3c-0.8,3-3.3,4.2-6.1,3.1c-0.8-0.3-1.2-0.9-1.4-1.6
	c-2.6-8.3-5.1-16.5-7.7-24.8c-0.4-1.3,0.2-1.9,1.5-2c2.5-0.3,3.4,0.2,4.2,2.9c1.7,5.7,3.4,11.5,5,17.2c0.2,0.5,0.2,1.1,1.1,1.4
	c1.6-6.1,3.1-12.1,4.7-18.1c0.7-2.8,1.2-3.2,3.3-3.3c1.9-0.1,2.6,0.8,3.1,2.4c1.7,6.2,3.5,12.4,5.2,18.6c0,0.1,0.2,0.3,0.4,0.5
	c0.9-0.4,0.8-1.4,1.1-2c1.7-5.6,3.3-11.3,5-16.9c0.8-2.8,2.8-3.4,5.6-1.5c-0.9,2.8-1.7,5.7-2.6,8.6c-1.7,5.4-3.4,10.9-5.1,16.3
	c-0.8,2.4-1.4,2.8-4,2.7c-2.5-0.1-2.9-0.5-3.6-2.9c-1.5-5.3-3.1-10.5-4.6-15.8C382.7,121.1,382.4,121.1,382.2,121.2z"/>
<path fill="#8AA7D0" d="M249.7,121c5.6,4.9,6.4,11.8,9.3,17.6c-3,2.1-5,1.6-6.3-1.3c-1.3-3-2.4-6-3.6-9c-2-4.9-4.9-6.3-10.6-5.2
	c0,5.3,0,10.6,0,15.8c-1.7,1.2-3.3,1.2-4.7,0.3c-0.5-0.9-0.3-1.7-0.3-2.5c0-10.5,0-21,0-31.6c0-3.5,0.4-3.8,3.8-3.8
	c2.7,0,5.4-0.2,8,0c3.8,0.3,7.3,1.3,9.6,4.6c3.2,4.7,1.7,10.9-3.1,14C251.2,120.2,250.6,120.5,249.7,121z M238.5,118.1
	c5.1,0.6,7.4,0.3,9.7-1c2-1.2,3.2-3.8,2.9-6.1c-0.3-2.5-1.9-4.2-4.3-4.8c-2.7-0.7-5.4-0.7-8.3-0.3C238.5,110,238.5,114,238.5,118.1z
	"/>
<path fill="#8CA9D1" d="M268.4,126.9c-0.1,2,0.4,3.7,1.2,5.4c1.1,2.5,4.3,4,7.8,3.4c1.4-0.2,2.9,0,4.3-0.6c1.2-0.5,2.6-0.8,3.9-1.2
	c1.1,3.2,0.7,4.2-2.2,5c-3.1,0.8-6.2,1.5-9.5,1c-6.4-1-9.3-3.6-10.6-10.2c-1-5.1-0.6-10,2.7-14.4c2.7-3.6,6.5-4.8,10.7-4.3
	c7.1,0.8,10.7,5.1,10.9,12.4c0.1,2.1-0.9,3.1-3.2,3.2c-4.3,0.1-8.7,0-13,0C270.4,126.6,269.5,126.4,268.4,126.9z M282.1,122.6
	c0.4-2.8-0.4-5-2.7-6.5c-2.3-1.6-4.9-1.7-7.3-0.4c-2.5,1.4-3.9,3.7-3.8,7C273,122.6,277.4,122.6,282.1,122.6z"/>
<path fill="#8CA9D1" d="M340,126.9c-0.6,5.7,2.1,8.6,7.5,8.8c3.3,0.1,6.4-0.6,9.3-1.9c1.3,3.2,0.9,4.2-2,5c-3.2,0.9-6.3,1.6-9.7,1.1
	c-5.6-0.8-9.1-3.8-10.3-9.2c-1.1-5.3-1-10.5,2.2-15.1c2.8-3.9,6.7-4.9,11.3-4.7c6.4,0.3,10.6,6,10.2,12.7c-0.1,2.2-0.7,2.9-3,2.9
	c-4.3,0-8.7,0-13,0C341.8,126.6,340.8,126.4,340,126.9z M353.6,122.7c0.1-3.3-0.9-5.8-3.6-7.1c-2.3-1.1-4.9-1.2-7,0.5
	c-2,1.6-3.7,3.6-3,6.6C344.5,122.7,348.9,122.7,353.6,122.7z"/>
<path fill="#87A5CF" d="M539.2,53c2.7-0.1,5.3-0.2,7.8,0c0.8,2,1,37.6,0.2,40.7c-2.6,0.5-5.2,0.1-7.8,0.2
	C538.8,91.8,538.6,57,539.2,53z"/>
<path fill="#8CA9D1" d="M470,139c-3,1.3-3.7,1.1-4.7-1.9c-2.4,1.2-4.5,2.9-7.3,3c-4,0.1-9.1-1.6-9.8-6.9c-0.4-3.1,1-6.5,3.6-8
	c3.3-1.9,6.9-1.9,10.4-2.3c0.8-0.1,1.7,0.2,2.4-0.2c0.8-6.1-1.9-8-6.9-7.5c-2.5,0.2-4.8,1.3-6.9,2.5c-2-1.5-2.1-3.2,0-4.5
	c2.9-1.8,6.2-2.4,9.5-2.3c1.2,0.1,2.6,0.1,3.8,0.5c3.2,0.9,5.7,3.9,5.8,7.3C470.1,125.4,470,132.1,470,139z M464.8,126.8
	c-2.8-0.5-5.6-0.2-8.4,0.6c-2.2,0.6-3.3,2.6-3,5c0.2,2,1.9,3.4,4.2,3.6C462.9,136.5,465.9,132.6,464.8,126.8z"/>
<path fill="#8BA8D0" d="M575.2,132.7c2.2-6.4,4.3-12.7,6.5-18.9c0.3-1,0.4-2.4,1.9-2.5c1.1-0.1,2.3-0.5,3.2,0.5
	c0.8,0.9,0.3,1.9-0.1,2.9c-4,11.1-8,22.2-12,33.2c-0.4,1.2-1.1,2.2-2.5,2.4c-1.1,0.2-2.3,0.5-3.1-0.5c-0.8-0.9-0.1-1.8,0.2-2.6
	c0.8-2.1,1.5-4.2,2.4-6.2c0.4-0.9,0.3-1.7-0.1-2.6c-3.2-7.9-6.2-16-9-24c-0.4-1-1.1-2.1,0.3-2.9c1-0.6,3.6-0.2,4.3,0.8
	c0.5,0.7,0.7,1.5,1,2.3c1.8,5.2,3.6,10.4,5.5,15.6C574,131,574.1,131.9,575.2,132.7z"/>
<path fill="#8AA7D0" d="M428.6,106c0,4.3,0,8.1,0,12.1c2.2,0.7,4.4,0.2,6.6,0.3c1.3,0.1,2.6,0,3.9,0c3.5,0,3.7,0.3,3,4.2
	c-4.4,0.5-8.9-0.2-13.6,0.4c0,5.5,0,10.7,0,15.6c-1.1,1.2-2.3,1.2-3.4,1.1c-1.3-0.1-2-0.8-2.1-2.1c0-0.5,0-0.9,0-1.4
	c0-10.3,0-20.5,0-30.8c0-3.7,0.6-4.3,4.3-4.3c4.3,0,8.7,0,13,0c2.2,0,3,0.6,3,2.4c0,1.7-0.8,2.4-2.9,2.4
	C436.6,106,432.8,106,428.6,106z"/>
<path fill="#8BA8D0" d="M316.4,111.5c0.4,1.3,0.2,2.3-0.2,3.4c-2.7,7.5-5.6,15-8.1,22.6c-0.6,1.8-2,2.3-3.7,2.3c-1.7,0-3.3,0-4-2.1
	c-2.7-7.8-5.5-15.6-8.3-23.4c-0.4-1.1-1.2-2.3,0.5-3.1c1.3-0.6,3.6-0.1,4.2,1.1c0.5,0.8,0.7,1.7,1,2.6c2,5.6,3.9,11.3,5.9,16.9
	c0.1,0.3,0.2,0.7,0.9,0.8c1.6-3.3,2.5-6.9,3.7-10.4c0.9-2.6,1.8-5.2,2.7-7.8C312.1,111.1,312.5,110.9,316.4,111.5z"/>
<path fill="#8CA9D1" d="M496.9,118.1c-1,0-1.6-0.7-2.4-1.2c-1.4-0.9-2.9-1.5-4.7-1.5c-3.8-0.1-6.3,1.7-7,5.3
	c-0.5,2.9-0.9,5.7-0.2,8.7c1.3,5.6,6.1,7.9,11,5c0.8-0.5,1.5-1.1,2.3-1.5c1.2-0.6,2-0.1,2.2,1.2c0.2,1.6-0.4,2.8-1.8,3.7
	c-7.5,4.6-17.8,2.3-19.1-8.3c-0.6-5-0.3-9.7,2.5-14c2.3-3.6,5.9-4.6,9.8-4.6c2.2,0,4.5,0.6,6.5,1.9
	C498.2,114.2,498.5,115.8,496.9,118.1z"/>
<path fill="#8AA7D0" d="M552.1,115.8c0,5.6-0.1,11.1,0.1,16.7c0.1,2.3,1.7,3.2,4,3.1c0.9,0,1.7-0.7,2.7-0.5c1.2,3.2,0.4,4.5-2.8,4.8
	c-4.7,0.4-8-1.4-8.7-5c-0.4-2-0.7-4-0.7-6c0.1-4.3,0-8.6,0-12.8c-1.6-1.2-4.6,0.6-4.5-2.7c0.1-2.9,2.7-1.8,4.5-2.5
	c0-1.4,0-2.9,0-4.3c-0.1-2,1.2-2.2,2.7-2.1c2.2,0,2.5,0.2,2.6,2.2c0,0.7,0,1.5,0,2.2c0,0.6,0.1,1.3,0.1,2c1.4,0.7,2.9,0.3,4.4,0.4
	c2.4,0.1,2.9,0.4,2.9,2.2c0,1.8-0.4,2-2.8,2.1C555.3,115.6,553.9,115.4,552.1,115.8z"/>
<path fill="#8DAAD2" d="M523.1,139.1c-1.6,0.9-3,1-4.4,0c-0.4-0.8-0.3-1.5-0.3-2.2c0-11.9,0-23.8,0-35.8c0-2.5,0.4-2.7,2.7-2.8
	c1.7,0,2.3,0.7,2.3,2.3c0,12.6,0,25.1-0.1,37.7C523.3,138.6,523.2,138.8,523.1,139.1z"/>
<path fill="#8DAAD2" d="M537.1,138.7c-0.8,0.9-1.6,1.1-2.4,1.1c-2.1,0.1-2.8-0.5-2.9-2.7c0-4.3,0-8.7,0-13c0-3.4,0-6.8,0-10.2
	c0-2.4,2.4-3.7,4.5-2.5c0.6,0.4,0.8,0.9,0.8,1.6C537.1,121.7,537.1,130.3,537.1,138.7z"/>
<path fill="#8DAAD2" d="M508.9,139c-1.8,1.1-3.3,1.1-4.7,0.1c-0.4-1.1-0.2-2.2-0.2-3.3c0-7.3,0-14.6,0-21.9c0-2.4,1.5-3.4,3.8-2.6
	c0.8,0.3,1.1,0.9,1.1,1.7C508.9,121.6,508.9,130.3,508.9,139z"/>
<path fill="#87A5CF" d="M327.1,139.1c-1.6,0.5-2.9,0.5-4.1,0.2c-0.6-0.6-0.5-1.2-0.5-1.9c0-7.8,0-15.6,0-23.5c0-1.5,0.1-2.8,2.1-2.7
	c1.9,0,2.4,0.4,2.4,2.4c0,6,0,12,0,18C327.1,134,327.1,136.5,327.1,139.1z"/>
<path fill="#8DAAD2" d="M537.7,103.3c0.1,1.9-1.3,3.3-3.2,3.3c-1.7,0-3.2-1.4-3.2-3.1c0-1.9,1-2.9,3.2-2.9
	C536.8,100.5,537.6,101.2,537.7,103.3z"/>
<path fill="#8DAAD2" d="M324.9,100.6c2.1,0,3.2,1,3.1,2.9c0,1.8-1.5,3.1-3.5,3.1c-1.8-0.1-3-1.4-2.9-3.3
	C321.7,101.2,322.5,100.6,324.9,100.6z"/>
<path fill="#8DAAD2" d="M509.4,103.3c0,2.3-0.9,3.3-3.1,3.2c-2,0-2.9-0.9-3-2.8c-0.1-2.4,0.6-3.1,3-3.1
	C509,100.6,509.4,100.9,509.4,103.3z"/>
</svg>
